<svg width="120" height="120" viewBox="0 0 120 120" fill="none" xmlns="http://www.w3.org/2000/svg">
<path fill-rule="evenodd" clip-rule="evenodd" d="M8.784 8.784C0 17.58 0 31.716 0 60C0 88.284 0 102.426 8.784 111.21C17.58 120 31.716 120 60 120C88.284 120 102.426 120 111.21 111.21C120 102.432 120 88.284 120 60C120 31.716 120 17.574 111.21 8.784C102.432 0 88.284 0 60 0C31.716 0 17.574 0 8.784 8.784ZM81.18 38.82C82.0227 39.6638 82.496 40.8075 82.496 42C82.496 43.1925 82.0227 44.3362 81.18 45.18L45.18 81.18C44.327 81.9749 43.1987 82.4076 42.0329 82.3871C40.8671 82.3665 39.7547 81.8942 38.9303 81.0697C38.1058 80.2453 37.6335 79.1329 37.6129 77.9671C37.5924 76.8013 38.0251 75.673 38.82 74.82L74.82 38.82C75.6638 37.9773 76.8075 37.504 78 37.504C79.1925 37.504 80.3362 37.9773 81.18 38.82ZM51 45C51 46.5913 50.3679 48.1174 49.2426 49.2426C48.1174 50.3679 46.5913 51 45 51C43.4087 51 41.8826 50.3679 40.7574 49.2426C39.6321 48.1174 39 46.5913 39 45C39 43.4087 39.6321 41.8826 40.7574 40.7574C41.8826 39.6321 43.4087 39 45 39C46.5913 39 48.1174 39.6321 49.2426 40.7574C50.3679 41.8826 51 43.4087 51 45ZM75 81C76.5913 81 78.1174 80.3679 79.2426 79.2426C80.3679 78.1174 81 76.5913 81 75C81 73.4087 80.3679 71.8826 79.2426 70.7574C78.1174 69.6321 76.5913 69 75 69C73.4087 69 71.8826 69.6321 70.7574 70.7574C69.6321 71.8826 69 73.4087 69 75C69 76.5913 69.6321 78.1174 70.7574 79.2426C71.8826 80.3679 73.4087 81 75 81Z" fill="url(#paint0_linear_39_165)"/>
<defs>
<linearGradient id="paint0_linear_39_165" x1="0" y1="0" x2="127.698" y2="8.84334" gradientUnits="userSpaceOnUse">
<stop stop-color="#FFE146"/>
<stop offset="1" stop-color="#E9C547"/>
</linearGradient>
</defs>
</svg>
