<svg width="124" height="120" viewBox="0 0 124 120" fill="none" xmlns="http://www.w3.org/2000/svg">
<path d="M48.7611 38.2033L52.1944 50.6233C55.4278 62.3233 57.0411 68.1767 61.7945 70.8367C66.5478 73.5034 72.5811 71.93 84.6478 68.7967L97.4479 65.4634C109.515 62.33 115.548 60.7633 118.295 56.1567C121.041 51.5433 119.428 45.69 116.188 33.99L112.761 21.5766C109.528 9.86992 107.908 4.01658 103.161 1.35658C98.4012 -1.31009 92.3678 0.263241 80.3012 3.40325L67.5011 6.72325C55.4345 9.85659 49.4011 11.4299 46.6611 16.0433C43.9144 20.6499 45.5278 26.5033 48.7611 38.2033Z" fill="url(#paint0_linear_39_169)"/>
<path d="M0.181253 14.9833C0.356898 14.3501 0.655622 13.7578 1.06035 13.2401C1.46507 12.7225 1.96785 12.2897 2.53995 11.9665C3.11205 11.6433 3.74225 11.436 4.39451 11.3565C5.04676 11.2771 5.70829 11.3269 6.34126 11.5033L17.6946 14.6499C20.7036 15.4671 23.4494 17.0499 25.6646 19.2441C27.8798 21.4383 29.4888 24.169 30.3346 27.17L44.6747 79.0767L45.728 82.7167C49.948 84.2967 53.5747 87.2501 55.8747 91.1701L57.9413 90.5301L117.075 75.1634C117.71 74.9979 118.372 74.9593 119.023 75.0496C119.673 75.14 120.3 75.3576 120.866 75.69C121.433 76.0225 121.928 76.4632 122.324 76.9871C122.72 77.511 123.009 78.1078 123.175 78.7434C123.34 79.379 123.379 80.0409 123.289 80.6915C123.198 81.342 122.981 81.9684 122.648 82.5348C122.316 83.1013 121.875 83.5967 121.351 83.9928C120.827 84.3889 120.23 84.6779 119.595 84.8434L60.6747 100.15L58.488 100.83C58.4413 109.297 52.5947 117.037 43.7547 119.337C33.148 122.097 22.248 115.99 19.4079 105.71C16.5679 95.4234 22.8613 84.8501 33.4613 82.0967C33.9836 81.9621 34.5106 81.8465 35.0413 81.7501L20.6946 29.83C20.3084 28.4961 19.5836 27.2848 18.5906 26.314C17.5976 25.3432 16.3702 24.6459 15.0279 24.29L3.66793 21.1366C3.03488 20.9616 2.44251 20.6637 1.92466 20.2597C1.4068 19.8557 0.97361 19.3537 0.649824 18.7823C0.326038 18.2108 0.118003 17.5812 0.037604 16.9294C-0.0427946 16.2775 0.00601802 15.6163 0.181253 14.9833Z" fill="url(#paint1_linear_39_169)"/>
<defs>
<linearGradient id="paint0_linear_39_169" x1="45.2617" y1="0" x2="124.445" y2="5.65359" gradientUnits="userSpaceOnUse">
<stop stop-color="#FFE146"/>
<stop offset="1" stop-color="#E9C547"/>
</linearGradient>
<linearGradient id="paint1_linear_39_169" x1="0" y1="11.3198" x2="131.068" y2="21.6206" gradientUnits="userSpaceOnUse">
<stop stop-color="#FFE146"/>
<stop offset="1" stop-color="#E9C547"/>
</linearGradient>
</defs>
</svg>
