<svg width="120" height="120" viewBox="0 0 120 120" fill="none" xmlns="http://www.w3.org/2000/svg">
<path d="M60 84C66.8 84 74.35 82.65 82.65 79.95C90.95 77.25 103.4 72.5 120 65.7V63.45C120 58.35 117.95 54.25 113.85 51.15C109.75 48.05 105.25 47.2 100.35 48.6C98.65 49.1 96.924 49.7 95.172 50.4C93.42 51.1 91.096 52 88.2 53.1C82.1 55.7 76.95 57.5 72.75 58.5C68.55 59.5 64.3 60 60 60C55.5 60 51.15 59.476 46.95 58.428C42.75 57.38 37.45 55.554 31.05 52.95C28.65 51.95 26.576 51.126 24.828 50.478C23.08 49.83 21.404 49.254 19.8 48.75C14.9 47.15 10.376 47.9 6.228 51C2.08 54.1 0.004 58.25 0 63.45V65.4C13.1 71.4 24.6 76 34.5 79.2C44.4 82.4 52.9 84 60 84ZM60 120C73.8 120 85.926 116.224 96.378 108.672C106.83 101.12 113.904 91.446 117.6 79.65C104.5 85.25 93.5 89.376 84.6 92.028C75.7 94.68 67.5 96.004 60 96C52.4 96 43.724 94.574 33.972 91.722C24.22 88.87 13.596 84.796 2.1 79.5C5.5 91.8 12.35 101.626 22.65 108.978C32.95 116.33 45.4 120.004 60 120ZM60 48C53.4 48 47.75 45.65 43.05 40.95C38.35 36.25 36 30.6 36 24C36 17.4 38.35 11.75 43.05 7.05C47.75 2.35 53.4 0 60 0C66.6 0 72.25 2.35 76.95 7.05C81.65 11.75 84 17.4 84 24C84 30.6 81.65 36.25 76.95 40.95C72.25 45.65 66.6 48 60 48Z" fill="url(#paint0_linear_39_167)"/>
<defs>
<linearGradient id="paint0_linear_39_167" x1="0" y1="0" x2="127.698" y2="8.84334" gradientUnits="userSpaceOnUse">
<stop stop-color="#FFE146"/>
<stop offset="1" stop-color="#E9C547"/>
</linearGradient>
</defs>
</svg>
