<svg width="330" height="374" viewBox="0 0 330 374" fill="none" xmlns="http://www.w3.org/2000/svg">
<g filter="url(#filter0_i_81_25)">
<path d="M145 8.547C154.761 2.91167 159.641 0.0940106 165 0.0940106C170.359 0.0940106 175.239 2.91168 185 8.547L309.545 80.453C319.306 86.0883 324.186 88.906 326.865 93.547C329.545 98.188 329.545 103.823 329.545 115.094V258.906C329.545 270.177 329.545 275.812 326.865 280.453C324.186 285.094 319.306 287.912 309.545 293.547L185 365.453C175.239 371.088 170.359 373.906 165 373.906C159.641 373.906 154.761 371.088 145 365.453L20.4552 293.547C10.6945 287.912 5.81415 285.094 3.13466 280.453C0.45517 275.812 0.45517 270.177 0.45517 258.906V115.094C0.45517 103.823 0.45517 98.188 3.13466 93.547C5.81415 88.906 10.6945 86.0883 20.4552 80.453L145 8.547Z" fill="url(#paint0_linear_81_25)"/>
</g>
<defs>
<filter id="filter0_i_81_25" x="0.455078" y="0.0940094" width="329.09" height="377.812" filterUnits="userSpaceOnUse" color-interpolation-filters="sRGB">
<feFlood flood-opacity="0" result="BackgroundImageFix"/>
<feBlend mode="normal" in="SourceGraphic" in2="BackgroundImageFix" result="shape"/>
<feColorMatrix in="SourceAlpha" type="matrix" values="0 0 0 0 0 0 0 0 0 0 0 0 0 0 0 0 0 0 127 0" result="hardAlpha"/>
<feOffset dy="4"/>
<feGaussianBlur stdDeviation="5"/>
<feComposite in2="hardAlpha" operator="arithmetic" k2="-1" k3="1"/>
<feColorMatrix type="matrix" values="0 0 0 0 1 0 0 0 0 1 0 0 0 0 1 0 0 0 0.3 0"/>
<feBlend mode="normal" in2="shape" result="effect1_innerShadow_81_25"/>
</filter>
<linearGradient id="paint0_linear_81_25" x1="-13.3077" y1="-2.99994" x2="403.293" y2="60.5838" gradientUnits="userSpaceOnUse">
<stop stop-color="#CB35FF"/>
<stop offset="1" stop-color="#E2A4FF"/>
</linearGradient>
</defs>
</svg>
