<svg width="380" height="380" viewBox="0 0 380 380" fill="none" xmlns="http://www.w3.org/2000/svg">
<path d="M170 11.547C179.761 5.91167 184.641 3.09401 190 3.09401C195.359 3.09401 200.239 5.91168 210 11.547L334.545 83.453C344.306 89.0883 349.186 91.906 351.865 96.547C354.545 101.188 354.545 106.823 354.545 118.094V261.906C354.545 273.177 354.545 278.812 351.865 283.453C349.186 288.094 344.306 290.912 334.545 296.547L210 368.453C200.239 374.088 195.359 376.906 190 376.906C184.641 376.906 179.761 374.088 170 368.453L45.4552 296.547C35.6945 290.912 30.8142 288.094 28.1347 283.453C25.4552 278.812 25.4552 273.177 25.4552 261.906V118.094C25.4552 106.823 25.4552 101.188 28.1347 96.547C30.8142 91.906 35.6945 89.0883 45.4552 83.453L170 11.547Z" fill="url(#paint0_linear_29_83)"/>
<path d="M202.58 131.636L200.364 213.114H179.568L177.295 131.636H202.58ZM189.966 249.477C186.216 249.477 182.996 248.152 180.307 245.5C177.617 242.811 176.292 239.591 176.33 235.841C176.292 232.129 177.617 228.947 180.307 226.295C182.996 223.644 186.216 222.318 189.966 222.318C193.564 222.318 196.727 223.644 199.455 226.295C202.182 228.947 203.564 232.129 203.602 235.841C203.564 238.341 202.902 240.633 201.614 242.716C200.364 244.761 198.716 246.409 196.67 247.659C194.625 248.871 192.39 249.477 189.966 249.477Z" fill="white"/>
<defs>
<linearGradient id="paint0_linear_29_83" x1="0" y1="0" x2="278.162" y2="443.826" gradientUnits="userSpaceOnUse">
<stop stop-color="#242121"/>
<stop offset="1" stop-opacity="0"/>
</linearGradient>
</defs>
</svg>
