<svg width="382" height="80" viewBox="0 0 382 80" fill="none" xmlns="http://www.w3.org/2000/svg">
<line x1="-4.37114e-08" y1="39.5" x2="369" y2="39.5" stroke="#D9D9D9"/>
<g filter="url(#filter0_i_29_88)">
<path d="M172.679 10C179.8 5.88879 183.361 3.83318 187.203 3.29052C189.059 3.02851 190.941 3.02851 192.797 3.29052C196.639 3.83318 200.2 5.88879 207.321 10C214.441 14.1112 218.002 16.1668 220.393 19.2232C221.548 20.6989 222.489 22.3296 223.19 24.0673C224.641 27.6664 224.641 31.7776 224.641 40C224.641 48.2224 224.641 52.3336 223.19 55.9327C222.489 57.6704 221.548 59.3011 220.393 60.7768C218.002 63.8332 214.441 65.8888 207.321 70C200.2 74.1112 196.639 76.1668 192.797 76.7095C190.941 76.9715 189.059 76.9715 187.203 76.7095C183.361 76.1668 179.8 74.1112 172.679 70C165.559 65.8888 161.998 63.8332 159.607 60.7768C158.452 59.3011 157.511 57.6704 156.81 55.9327C155.359 52.3336 155.359 48.2224 155.359 40C155.359 31.7776 155.359 27.6664 156.81 24.0673C157.511 22.3296 158.452 20.6989 159.607 19.2232C161.998 16.1668 165.559 14.1112 172.679 10Z" fill="url(#paint0_linear_29_88)"/>
</g>
<path d="M190.744 55.3977C188.622 55.3977 186.733 55.0331 185.076 54.304C183.428 53.5653 182.126 52.5521 181.17 51.2642C180.223 49.9669 179.735 48.4706 179.707 46.7756H185.9C185.938 47.4858 186.17 48.1108 186.596 48.6506C187.031 49.1809 187.609 49.5928 188.329 49.8864C189.049 50.1799 189.858 50.3267 190.758 50.3267C191.695 50.3267 192.524 50.161 193.244 49.8295C193.963 49.4981 194.527 49.0388 194.934 48.4517C195.341 47.8646 195.545 47.1875 195.545 46.4205C195.545 45.6439 195.327 44.9574 194.891 44.3608C194.465 43.7547 193.85 43.2812 193.045 42.9403C192.249 42.5994 191.302 42.429 190.204 42.429H187.491V37.9119H190.204C191.132 37.9119 191.951 37.7509 192.661 37.429C193.381 37.107 193.94 36.6619 194.337 36.0938C194.735 35.5161 194.934 34.8438 194.934 34.0767C194.934 33.3475 194.759 32.7083 194.408 32.1591C194.067 31.6004 193.585 31.1648 192.96 30.8523C192.344 30.5398 191.624 30.3835 190.8 30.3835C189.967 30.3835 189.205 30.535 188.513 30.8381C187.822 31.1316 187.268 31.553 186.852 32.1023C186.435 32.6515 186.212 33.2955 186.184 34.0341H180.289C180.317 32.358 180.796 30.8807 181.724 29.6023C182.652 28.3239 183.902 27.3248 185.474 26.6051C187.055 25.8759 188.84 25.5114 190.829 25.5114C192.836 25.5114 194.593 25.8759 196.099 26.6051C197.604 27.3343 198.774 28.3191 199.607 29.5597C200.45 30.7907 200.867 32.1733 200.857 33.7074C200.867 35.3362 200.36 36.6951 199.337 37.7841C198.324 38.8731 197.003 39.5644 195.374 39.858V40.0852C197.514 40.3598 199.143 41.1032 200.261 42.3153C201.388 43.518 201.946 45.0237 201.937 46.8324C201.946 48.4896 201.468 49.9621 200.502 51.25C199.546 52.5379 198.225 53.5511 196.539 54.2898C194.853 55.0284 192.922 55.3977 190.744 55.3977Z" fill="black"/>
<g filter="url(#filter1_i_29_88)">
<path d="M362.819 30.1585C366.352 28.1944 370.648 28.1944 374.181 30.1585L374.51 30.3415C378.017 32.2911 380.191 35.988 380.191 40C380.191 44.012 378.017 47.7089 374.51 49.6585L374.181 49.8415C370.648 51.8056 366.352 51.8056 362.819 49.8415L362.49 49.6585C358.983 47.7089 356.809 44.012 356.809 40C356.809 35.988 358.983 32.2911 362.49 30.3415L362.819 30.1585Z" fill="url(#paint1_linear_29_88)"/>
</g>
<defs>
<filter id="filter0_i_29_88" x="155.359" y="3.09399" width="69.2822" height="77.812" filterUnits="userSpaceOnUse" color-interpolation-filters="sRGB">
<feFlood flood-opacity="0" result="BackgroundImageFix"/>
<feBlend mode="normal" in="SourceGraphic" in2="BackgroundImageFix" result="shape"/>
<feColorMatrix in="SourceAlpha" type="matrix" values="0 0 0 0 0 0 0 0 0 0 0 0 0 0 0 0 0 0 127 0" result="hardAlpha"/>
<feOffset dy="4"/>
<feGaussianBlur stdDeviation="5"/>
<feComposite in2="hardAlpha" operator="arithmetic" k2="-1" k3="1"/>
<feColorMatrix type="matrix" values="0 0 0 0 1 0 0 0 0 1 0 0 0 0 1 0 0 0 0.3 0"/>
<feBlend mode="normal" in2="shape" result="effect1_innerShadow_29_88"/>
</filter>
<filter id="filter1_i_29_88" x="356.809" y="28.6854" width="23.3828" height="26.6292" filterUnits="userSpaceOnUse" color-interpolation-filters="sRGB">
<feFlood flood-opacity="0" result="BackgroundImageFix"/>
<feBlend mode="normal" in="SourceGraphic" in2="BackgroundImageFix" result="shape"/>
<feColorMatrix in="SourceAlpha" type="matrix" values="0 0 0 0 0 0 0 0 0 0 0 0 0 0 0 0 0 0 127 0" result="hardAlpha"/>
<feOffset dy="4"/>
<feGaussianBlur stdDeviation="5"/>
<feComposite in2="hardAlpha" operator="arithmetic" k2="-1" k3="1"/>
<feColorMatrix type="matrix" values="0 0 0 0 1 0 0 0 0 1 0 0 0 0 1 0 0 0 0.3 0"/>
<feBlend mode="normal" in2="shape" result="effect1_innerShadow_29_88"/>
</filter>
<linearGradient id="paint0_linear_29_88" x1="150" y1="0" x2="235.132" y2="5.89556" gradientUnits="userSpaceOnUse">
<stop stop-color="#FFE146"/>
<stop offset="1" stop-color="#E9C547"/>
</linearGradient>
<linearGradient id="paint1_linear_29_88" x1="355.831" y1="27" x2="385.379" y2="31.6832" gradientUnits="userSpaceOnUse">
<stop stop-color="#CB35FF"/>
<stop offset="1" stop-color="#E2A4FF"/>
</linearGradient>
</defs>
</svg>
