<svg width="382" height="80" viewBox="0 0 382 80" fill="none" xmlns="http://www.w3.org/2000/svg">
<line x1="-4.37114e-08" y1="39.5" x2="369" y2="39.5" stroke="#D9D9D9"/>
<g filter="url(#filter0_i_29_96)">
<path d="M172.679 10C179.8 5.88879 183.361 3.83318 187.203 3.29052C189.059 3.02851 190.941 3.02851 192.797 3.29052C196.639 3.83318 200.2 5.88879 207.321 10C214.441 14.1112 218.002 16.1668 220.393 19.2232C221.548 20.6989 222.489 22.3296 223.19 24.0673C224.641 27.6664 224.641 31.7776 224.641 40C224.641 48.2224 224.641 52.3336 223.19 55.9327C222.489 57.6704 221.548 59.3011 220.393 60.7768C218.002 63.8332 214.441 65.8888 207.321 70C200.2 74.1112 196.639 76.1668 192.797 76.7095C190.941 76.9715 189.059 76.9715 187.203 76.7095C183.361 76.1668 179.8 74.1112 172.679 70C165.559 65.8888 161.998 63.8332 159.607 60.7768C158.452 59.3011 157.511 57.6704 156.81 55.9327C155.359 52.3336 155.359 48.2224 155.359 40C155.359 31.7776 155.359 27.6664 156.81 24.0673C157.511 22.3296 158.452 20.6989 159.607 19.2232C161.998 16.1668 165.559 14.1112 172.679 10Z" fill="url(#paint0_linear_29_96)"/>
</g>
<path d="M180.163 55V50.5682L190.518 40.9801C191.398 40.1278 192.137 39.3608 192.734 38.679C193.34 37.9972 193.799 37.3295 194.112 36.6761C194.424 36.0133 194.58 35.2983 194.58 34.5312C194.58 33.679 194.386 32.9451 193.998 32.3295C193.61 31.7045 193.079 31.2263 192.407 30.8949C191.735 30.554 190.972 30.3835 190.12 30.3835C189.23 30.3835 188.453 30.5634 187.79 30.9233C187.128 31.2831 186.616 31.7992 186.256 32.4716C185.897 33.1439 185.717 33.9441 185.717 34.8722H179.879C179.879 32.9687 180.309 31.3163 181.171 29.9148C182.033 28.5133 183.24 27.429 184.793 26.6619C186.346 25.8949 188.136 25.5114 190.163 25.5114C192.246 25.5114 194.059 25.8807 195.603 26.6193C197.156 27.3485 198.363 28.3617 199.225 29.6591C200.087 30.9564 200.518 32.4432 200.518 34.1193C200.518 35.2178 200.3 36.3021 199.864 37.3722C199.438 38.4422 198.676 39.6307 197.577 40.9375C196.479 42.2348 194.931 43.7926 192.933 45.6108L188.685 49.7727V49.9716H200.901V55H180.163Z" fill="black"/>
<g filter="url(#filter1_i_29_96)">
<path d="M362.819 30.1585C366.352 28.1944 370.648 28.1944 374.181 30.1585L374.51 30.3415C378.017 32.2911 380.191 35.988 380.191 40C380.191 44.012 378.017 47.7089 374.51 49.6585L374.181 49.8415C370.648 51.8056 366.352 51.8056 362.819 49.8415L362.49 49.6585C358.983 47.7089 356.809 44.012 356.809 40C356.809 35.988 358.983 32.2911 362.49 30.3415L362.819 30.1585Z" fill="url(#paint1_linear_29_96)"/>
</g>
<defs>
<filter id="filter0_i_29_96" x="155.359" y="3.09399" width="69.2822" height="77.812" filterUnits="userSpaceOnUse" color-interpolation-filters="sRGB">
<feFlood flood-opacity="0" result="BackgroundImageFix"/>
<feBlend mode="normal" in="SourceGraphic" in2="BackgroundImageFix" result="shape"/>
<feColorMatrix in="SourceAlpha" type="matrix" values="0 0 0 0 0 0 0 0 0 0 0 0 0 0 0 0 0 0 127 0" result="hardAlpha"/>
<feOffset dy="4"/>
<feGaussianBlur stdDeviation="5"/>
<feComposite in2="hardAlpha" operator="arithmetic" k2="-1" k3="1"/>
<feColorMatrix type="matrix" values="0 0 0 0 1 0 0 0 0 1 0 0 0 0 1 0 0 0 0.3 0"/>
<feBlend mode="normal" in2="shape" result="effect1_innerShadow_29_96"/>
</filter>
<filter id="filter1_i_29_96" x="356.809" y="28.6854" width="23.3828" height="26.6292" filterUnits="userSpaceOnUse" color-interpolation-filters="sRGB">
<feFlood flood-opacity="0" result="BackgroundImageFix"/>
<feBlend mode="normal" in="SourceGraphic" in2="BackgroundImageFix" result="shape"/>
<feColorMatrix in="SourceAlpha" type="matrix" values="0 0 0 0 0 0 0 0 0 0 0 0 0 0 0 0 0 0 127 0" result="hardAlpha"/>
<feOffset dy="4"/>
<feGaussianBlur stdDeviation="5"/>
<feComposite in2="hardAlpha" operator="arithmetic" k2="-1" k3="1"/>
<feColorMatrix type="matrix" values="0 0 0 0 1 0 0 0 0 1 0 0 0 0 1 0 0 0 0.3 0"/>
<feBlend mode="normal" in2="shape" result="effect1_innerShadow_29_96"/>
</filter>
<linearGradient id="paint0_linear_29_96" x1="150" y1="0" x2="235.132" y2="5.89556" gradientUnits="userSpaceOnUse">
<stop stop-color="#FFE146"/>
<stop offset="1" stop-color="#E9C547"/>
</linearGradient>
<linearGradient id="paint1_linear_29_96" x1="355.831" y1="27" x2="385.379" y2="31.6832" gradientUnits="userSpaceOnUse">
<stop stop-color="#CB35FF"/>
<stop offset="1" stop-color="#E2A4FF"/>
</linearGradient>
</defs>
</svg>
